<?xml version="1.0" encoding="UTF-8" standalone="no"?>
<!-- Created with Inkscape (http://www.inkscape.org/) -->

<svg
   xmlns:dc="http://purl.org/dc/elements/1.1/"
   xmlns:cc="http://creativecommons.org/ns#"
   xmlns:rdf="http://www.w3.org/1999/02/22-rdf-syntax-ns#"
   xmlns:svg="http://www.w3.org/2000/svg"
   xmlns="http://www.w3.org/2000/svg"
   xmlns:sodipodi="http://sodipodi.sourceforge.net/DTD/sodipodi-0.dtd"
   xmlns:inkscape="http://www.inkscape.org/namespaces/inkscape"
   width="661.82159mm"
   height="618.89893mm"
   viewBox="0 0 661.8216 618.89892"
   version="1.1"
   id="svg964"
   inkscape:version="0.92.5 (2060ec1f9f, 2020-04-08)"
   sodipodi:docname="muscle.svg">
  <defs
     id="defs958" />
  <sodipodi:namedview
     id="base"
     pagecolor="#ffffff"
     bordercolor="#666666"
     borderopacity="1.0"
     inkscape:pageopacity="0.0"
     inkscape:pageshadow="2"
     inkscape:zoom="0.24748737"
     inkscape:cx="1025.5253"
     inkscape:cy="774.94429"
     inkscape:document-units="mm"
     inkscape:current-layer="layer1"
     showgrid="false"
     inkscape:window-width="2560"
     inkscape:window-height="1377"
     inkscape:window-x="1912"
     inkscape:window-y="-8"
     inkscape:window-maximized="1" />
  <metadata
     id="metadata961">
    <rdf:RDF>
      <cc:Work
         rdf:about="">
        <dc:format>image/svg+xml</dc:format>
        <dc:type
           rdf:resource="http://purl.org/dc/dcmitype/StillImage" />
        <dc:title></dc:title>
      </cc:Work>
    </rdf:RDF>
  </metadata>
  <g
     inkscape:label="Layer 1"
     inkscape:groupmode="layer"
     id="layer1"
     transform="translate(1313.2707,39.452817)">
    <g
       id="g5417"
       transform="translate(437.25294,718.42049)">
      <g
         transform="translate(-448.95776,-273.6692)"
         id="g5412">
        <path
           id="path12-7"
           style="fill:#000000;fill-opacity:1;fill-rule:nonzero;stroke:none;stroke-width:0.03527778"
           d="m -962.54317,-222.6999 c -1.0576,0.0618 -2.02191,0.18353 -3.02476,0.39951 -1.26952,0.10343 -1.07585,1.56358 -2.51978,4.0499 -0.15615,0.23931 -0.30623,0.47151 -0.44109,0.69155 -0.14196,0.79903 -0.0456,1.42669 0.16529,2.12939 0.7179,1.15697 1.24315,2.05537 1.64064,2.72461 0.38735,-0.22409 0.61955,-1.0576 0.7605,-1.46928 0.0923,-0.26973 0.18252,-0.54046 0.27378,-0.8112 0,-0.001 -0.002,-0.001 -0.002,-0.002 0,0 0,10e-4 -0.0324,-0.11559 -0.25655,-1.02718 1.65585,-3.77714 2.97405,-3.65445 2.24194,-0.0537 5.04564,0.65809 10.06797,2.91727 0.4208,-0.217 0.80815,-0.35693 1.25735,-0.65403 -3.48713,-4.84183 -7.969,-6.60517 -11.11948,-6.20566 z m 23.20125,8.19613 c -2.63132,-1.36078 -5.44821,-1.69845 -7.8311,-1.70453 -0.65808,0.001 -1.26648,0.0314 -1.82621,0.0497 -0.85682,0.49889 -1.51896,1.18232 -2.0432,1.63051 -0.67735,1.2756 -0.90144,5.68345 -0.67025,8.77816 2.01583,2.53398 3.00549,2.54108 2.10202,0.36606 0,-0.007 0.28087,-0.58812 0.7179,-2.35349 -1.72379,-2.72562 0.65099,-4.46767 2.53905,-5.19572 1.28879,0.26973 3.46888,1.09208 5.3681,1.81506 2.03509,0.21192 3.77815,0.001 4.70291,1.36788 0.1663,-0.37214 0.29305,-0.59218 0.45123,-0.67735 0.25451,-0.0963 0.56683,-0.0902 0.86697,-0.19063 -0.98155,-1.36586 -2.58366,-2.7165 -4.37742,-3.88564 z m 94.27428,135.139355 c -3.95762,-15.61859 -7.91931,-31.032345 -12.05337,-45.068085 -4.01137,-22.59488 -7.89802,-43.90908 -11.79785,-64.53681 -1.43988,-6.04849 -1.56054,-12.8879 -5.09533,-18.23369 -3.67574,-6.34052 -11.94285,-7.0929 -18.01466,-9.22939 -4.82257,-1.51796 -9.65528,-3.0207 -14.48494,-4.52851 l -0.66417,-0.2099 -70.25879,-12.81286 c -0.65403,-0.10038 -1.2026,-0.0882 -1.65789,0.0406 -0.0527,0.0162 -1.92862,0.46441 -3.66154,1.28879 -0.95417,0.57291 -2.06247,1.51998 -2.85136,3.07748 -0.23626,0.95721 -0.39039,1.98642 -0.51916,3.15049 -0.25249,1.01298 -0.72602,2.07971 -1.12351,3.30968 -1.76537,3.04605 -2.70129,7.66987 -4.05599,13.57944 -1.45305,5.68852 -2.28149,11.94488 -5.62768,19.30751 -0.36483,0.90347 -0.41077,1.62138 -0.41786,2.22673 0.0134,1.20666 0.24751,2.10303 0.49624,3.00042 0.78453,2.60597 2.62899,5.23425 2.73344,5.36607 1.19347,1.16812 2.58771,1.76942 3.69196,1.87894 0.001,0.002 0.11559,0.0193 0.36199,0.0639 0.0923,0.0193 0.20686,0.0426 0.32651,0.071 0.0649,0.0963 0.11154,0.19772 0.17136,0.29101 0.25046,0.58406 0.27277,1.29792 0.12675,2.40216 -0.11762,1.32935 -0.3914,3.07646 -0.56682,4.98481 -0.0923,1.83533 -0.25046,3.46787 -0.28595,5.01725 -0.0507,0.54756 0.0304,1.18435 0.4127,1.91544 0.32245,0.61448 0.9633,1.22795 1.85359,1.71974 l 0.0791,0.0406 c 4.12696,1.98946 7.46504,5.26467 11.0485,5.53439 l 0.0345,-0.009 c 3.01765,-0.4056 5.22715,-0.7392 7.14665,-1.51998 2.73677,-1.03732 4.64207,-2.93146 6.0282,-4.80431 2.52283,2.07565 6.30605,4.38654 12.51171,3.76091 0.51916,-0.073 0.98053,-0.16021 1.38613,-0.26972 0.88522,0.5293 2.29366,1.79173 4.75361,2.3474 3.52263,0.76557 7.39711,2.78646 12.7581,2.88888 0.54047,0.0466 1.08498,0.11762 1.63964,0.22206 -0.0375,0.95518 -0.14703,2.53702 -0.38228,5.7017 0.28493,5.90653 0.15616,10.63885 -0.67735,14.18581 -0.70878,3.41108 -1.33645,6.01503 -1.67918,6.54028 -4.23039,6.2594 -11.45714,14.51333 -17.37685,24.51336 -2.19226,4.491995 -4.37134,9.486945 -6.03531,13.068385 -0.45833,-0.0446 -0.92578,-0.13081 -1.43988,-0.27987 -1.80592,-0.70168 -3.97993,-2.84933 -6.44191,-6.69744 -3.92113,-4.959455 -9.02558,-10.413735 -16.69545,-14.716125 -7.66785,-4.3247 -17.84573,-7.5056 -32.06746,-7.63134 -22.0588,-2.43258 -35.4225,3.42528 -48.9403,13.12821 -13.2956,7.860495 -21.3122,17.848365 -27.3229,30.258665 -4.6822,11.53624 -5.8938,23.6393 -4.8818,30.71912 0.9486,6.63732 -2.8071,11.78375 -3.2183,18.12711 -0.682,10.51109 3.9249,24.2931301 9.3423,33.2480301 6.7217,11.1103599 18.5165,26.1171099 32.4317,32.7259199 14.5326,8.17931 29.5191,10.35706 42.6551,11.5552 l 0.064,-0.013 c 15.11882,-1.22592 33.56027,-6.64046 41.35283,-10.38434 9.63702,-3.54899 28.90904,-7.31904 32.8981,-9.36559 0.93997,-0.67733 2.92944,-0.96967 5.22411,-1.01915 4.24053,-0.21863 13.64028,1.76972 25.72914,1.79628 9.21825,0.0487 19.49104,-0.61872 28.93236,-4.73019 1.79376,-1.11103 4.3541,-2.90449 7.35655,-4.86323 1.64166,-0.90975 3.28535,-1.87548 4.77795,-2.93896 1.47333,-1.10789 2.79863,-2.33696 3.74874,-4.08844 1.22592,-2.65383 1.28068,-5.05933 1.46219,-7.0592399 0.0213,-0.18931 0.0365,-0.36868 0.0558,-0.55364 0.14297,-0.68414 0.26566,-1.34871 0.37416,-1.9924 0.11154,-0.67339 0.1886,-1.32692 0.25451,-1.96147 0.0629,-0.24955 0.12168,-0.49747 0.19571,-0.73079 1.68323,-7.07141 5.47659,-18.7620801 7.84326,-26.6174101 2.43866,-7.90126 6.6873,-21.58544 8.66156,-42.61624 0.008,-0.14297 0.0122,-0.2393 0.0182,-0.32346 0.1592,-2.97811 -0.0274,-7.30686 -0.64287,-13.24888 z m -129.24195,-83.411345 c -1.08396,0.51816 -2.20646,0.79193 -3.59665,0.7169 -1.53011,-0.11458 -3.5216,-0.73718 -6.24926,-2.58772 -0.0547,-0.73312 -0.20888,-2.17097 -0.41066,-3.80046 -0.0101,-1.54736 0.42283,-2.98825 0.96836,-4.52445 0.64288,1.91746 3.04909,3.83696 5.1653,5.36404 2.29873,1.63253 4.68973,2.39607 6.84549,2.75199 -0.79599,0.83553 -1.72075,1.58082 -2.72258,2.0797 z m 118.15796,99.475075 c -0.92173,15.59962 -3.8177,25.70592 -6.16206,31.26982 -0.82336,-2.85856 -1.9925,-6.94152 -2.84426,-10.63307 -0.24133,-2.73302 -2.01988,-10.07294 -3.67067,-11.88394 -0.53234,3.70819 0.0538,9.1786 0.59928,13.35941 1.27662,14.02874 0.49686,25.61527 0.8548,35.2295801 -0.0507,0.12959 -0.10242,0.25948 -0.1592,0.40124 -0.45529,1.13243 -0.8406,2.7168 -1.2026,4.81931996 -0.0578,1.33878 0.0375,2.67948004 0.13283,3.94191004 -0.0395,0.54573 -0.0872,1.08447 -0.1592,1.60809 -0.12877,0.94272 -0.27479,1.84497 -0.4279,2.68476 -0.2535,0.94464 -0.54249,1.82874 -0.84567,2.6102299 -0.6013,0.14257 -1.22998,0.43846 -1.83838,0.93075 -6.04849,4.8898 -12.69422,6.09868 -21.42067,8.53582 -2.75402,0.7752 -4.80939,1.5792 -6.64168,2.10607 -1.81201,0.54067 -3.44455,0.88127 -5.85177,0.90144 -0.0821,-0.002 -0.19266,-0.002 -0.30015,0 -5.29001,0.0108 -10.63276,-0.89039 -19.29331,-1.79629 -9.23243,-1.02505 -13.53076,-2.77977 -21.50585,-3.33311 -1.88806,0.18506 -3.39181,0.89597 -4.63092,2.26051 -1.24823,1.1376 -3.17482,1.65849 -5.61551,1.68343 -6.64472,0.0931 -15.28904,-0.97638 -25.1461,-1.16254 -3.96371,-0.2099 -6.63356,-0.50102 -8.15658,-0.75655 -1.04239,0.30106 -2.08478,0.60211 -3.12514,0.91098 0.49584,0.5078 1.17319,1.0148 2.00974,1.40621 0.25249,0.08 11.49365,3.74185 23.04003,6.34934 -3.98399,1.4418 -7.78749,2.94687 -11.519,4.32529 -8.30159,3.21823 -17.07894,5.83758 -28.07843,5.62536 -10.6668,-0.0257 -23.4055,-1.98014 -39.7036,-9.26539 -16.5368,-7.50601 -26.832,-16.85181 -33.1334,-26.9897499 -6.2884,-10.14199 -8.6171,-21.2333901 -8.3758,-31.8953601 1.0674,-4.31739 2.2081,-8.45145 2.5781,-12.12557 -0.8377,-8.03947 -0.7355,-24.22792 9.8944,-40.12434 5.411,-7.34438 12.1335,-13.29552 22.6149,-19.229425 8.9192,-4.67351 18.564,-6.59402 40.0952,-4.82966 19.78694,-1.11844 29.55071,4.90166 37.16177,10.086215 3.82378,2.57758 6.85157,5.71488 10.01119,8.52771 1.57372,1.25938 3.21842,2.32205 5.12879,3.16671 0.81424,0.35895 1.69642,0.71689 2.63335,1.04239 -1.43582,5.04362 -2.30786,11.35777 -2.31394,17.4742 0,1.20057 0.0233,2.38999 0.0669,3.57535 0.49281,13.13683 3.57536,25.44735 9.98178,37.67159 0.91057,1.90915 2.28657,3.59451 3.48511,4.33919 0.43906,0.13699 0.83452,0.0428 1.12554,-0.26932 0.87,-1.81018 0.86494,-3.23809 -0.0284,-3.68567 -4.43826,-14.24148 -5.9339,-26.32385 -6.16509,-38.27887 -0.009,-1.06368 0.003,-2.13142 0.0365,-3.2022 0.35287,-12.28355 4.98177,-21.9368 10.50906,-30.20797 4.22532,-6.036315 10.56077,-16.146875 16.11342,-22.033125 1.18637,-0.92578 1.55243,-2.78646 2.62219,-6.66804 1.59502,-7.76924 2.20341,-14.92602 2.14258,-19.95139 -0.24134,-4.08539 -0.53844,-7.18518 -0.69358,-8.75079 -0.006,-0.0953 -0.0152,-0.1815 -0.0223,-0.27074 1.66701,-1.06976 3.32996,-1.95194 4.82561,-2.61915 0.60333,-0.45123 1.05151,-1.20969 1.40742,-1.99656 1.51897,-2.8615 1.86272,-4.76983 2.11419,-7.60091 0.1014,-0.57697 0.29608,-1.11946 0.58203,-1.61124 0.90753,0.0436 2.71244,0.46238 5.18862,1.1519 0.40864,0.11762 0.79497,0.20888 1.17218,0.27783 l 3.73759,17.54721 0.54046,-17.822 c 1.40134,-0.33766 2.79559,-0.85886 4.08134,-1.6731 1.99858,-2.22167 2.80674,-6.3101 4.05902,-11.20973 0.91767,-2.00974 1.11439,-3.74266 -0.17744,-4.1442 -1.53114,-0.49686 -3.65141,0.74224 -4.3683,2.90408 -1.10526,3.15962 -2.46705,4.52648 -3.76801,5.19369 -1.35166,0.58204 -3.17989,0.59218 -4.93208,0.42588 -0.92578,-0.0263 -1.73394,-0.13486 -2.36565,-0.24944 -0.74326,-1.00791 -1.93978,-2.05233 -3.11602,-2.86556 -1.48955,-1.46116 -3.55507,-4.12392 -4.93005,-5.03854 -0.22206,0.0345 -0.44413,0.10241 -0.66518,0.19266 0.41067,-1.01197 0.60232,-2.58671 0.71487,-3.80452 0.0852,-0.53235 0.16832,-0.88826 0.23626,-1.10221 0.0679,-0.19469 0.10039,-0.27277 0.10039,-0.27277 1.01501,-1.25228 0.56479,-2.08579 -0.98561,-2.34233 -1.10424,-0.69966 -1.64064,-0.23524 -1.87792,0.69256 -0.0517,0.073 -6.06471,8.10589 -6.31415,18.70519 l -0.0274,0.24945 c -0.0375,0.23321 -0.07,0.40458 -0.0872,0.48975 -0.0588,0.23931 -0.15514,0.49889 -0.32042,1.05558 -0.0933,0.2758 -0.25147,0.66214 -0.26364,1.12452 -0.002,0.50091 0.71284,1.09005 1.80999,0.99372 1.70047,-0.0994 2.35247,-0.85582 2.7317,-1.15292 0.68242,-0.68647 0.74833,-0.94403 0.92071,-1.21477 0.46035,-0.86899 0.69864,-1.56865 1.0718,-2.56642 0.28594,-0.79497 0.59115,-1.6954 0.8842,-2.58468 0.87812,0.56277 1.60516,1.18638 1.78666,1.48753 l 0.1521,0.18455 v 0.0274 c 0.0801,0.69256 -0.73312,3.13629 -1.62544,5.80817 -0.6165,1.98439 -0.88319,3.61896 -1.12654,4.4839 -0.0578,0.21395 -0.1085,0.37213 -0.14906,0.47759 -3.01259,1.75827 -5.8244,2.36666 -8.84002,2.62219 -0.65809,0.0507 -1.29589,0.073 -1.91139,0.0669 -4.5792,-0.11053 -8.31477,-1.58792 -11.57882,-3.13325 -0.44109,-0.24843 -0.82641,-0.49889 -1.17725,-0.74732 4.05903,-17.95788 4.98683,-26.20978 5.07708,-26.38013 1.55547,-2.5715 0.80613,-4.92295 -1.35774,-5.30726 -2.03307,-0.35287 -3.15353,1.34456 -2.95073,3.79742 0,0.002 -0.07,0.49584 -0.36707,1.57676 -1.11945,2.84528 -3.08153,10.4391 -5.88828,23.45983 -0.16933,0.0446 -0.34374,0.10342 -0.52423,0.17947 -0.25147,0.0963 -0.54046,0.15312 -0.87609,0.17137 -1.82925,0.0862 -5.65506,-1.41858 -7.86557,-3.14238 -0.20585,-0.17745 -0.39445,-0.35591 -0.57291,-0.52728 0.0497,-0.15412 0.10748,-0.3042 0.15108,-0.46542 6.43888,-18.54701 7.4184,-28.38784 7.45085,-28.57847 0.56581,-2.10506 -0.42588,-3.87144 -2.33017,-4.6725 -1.75827,-0.22714 -1.72176,1.76233 -1.26445,4.14623 0,0.003 -0.0152,0.10444 -0.074,0.37416 -0.90753,1.79174 -5.5638,10.67435 -8.98198,26.67115 -1.25634,0.11458 -3.52972,-0.0193 -5.84873,-0.61752 -1.58995,-0.51308 -2.74996,-1.12351 -3.41007,-1.69236 -0.52322,-0.48469 -0.76557,-0.84568 -0.92173,-1.21173 0.0588,-0.25755 0.10343,-0.52626 0.11966,-0.81728 6.93776,-19.24261 8.21438,-30.41178 8.2732,-30.58314 0.74325,-1.26344 -0.55365,-3.2164 -3.73861,-4.73232 -2.30583,-0.28291 -2.7459,1.79071 -0.34476,4.17868 0,0 0.069,0.10241 0.217,0.36909 0.0558,1.56054 -6.20972,10.68651 -9.06716,26.33349 -3.05821,-2.31192 -7.18011,-3.14339 -8.88464,-3.87651 -0.19265,-0.44515 -0.38126,-0.94505 -0.53539,-1.43988 -0.15007,-0.50395 -0.27276,-0.97648 -0.34982,-1.31312 -0.006,-0.0314 -0.0132,-0.0619 -0.0203,-0.0913 3.09979,-8.22047 3.29143,-15.46953 5.22816,-23.69608 1.57575,-11.50785 2.86759,-9.26793 3.88767,-5.94202 0.11154,-0.18049 0.23017,-0.35592 0.35692,-0.52627 -0.26972,-5.63579 0.52525,-8.51148 2.09897,-8.83393 1.63964,-0.13385 3.48105,0.0456 5.40968,0.82133 1.43582,0.80309 3.20422,1.87083 4.74651,3.2235 0.0507,-0.23525 0.0821,-0.4492 0.11763,-0.6084 0.0913,-0.10444 0.19773,-0.2028 0.39545,-0.29811 -0.76556,-2.17908 -1.88806,-3.55203 -3.45671,-4.3612 -0.0801,-0.0345 -0.16021,-0.0629 -0.24539,-0.0933 l 62.47334,12.96394 c 4.85602,1.70149 9.69989,3.44252 14.56403,5.11764 3.28636,1.13466 6.55852,2.26527 9.74653,3.52364 2.0138,0.84567 3.40297,2.37985 4.40683,4.26993 l 2.52789,28.32802 1.99048,-6.55447 c 3.2752,17.86155 7.54311,42.28771 11.24927,64.16874 2.75604,10.17545 5.50296,20.074085 6.67615,29.989955 -0.29203,6.11034 -0.0821,11.44396 0.38735,15.29917 0.66924,3.44556 1.02718,6.11744 1.01095,7.30078 10e-4,0.0862 0,0.15514 -0.002,0.18759 z M -931.73999,-209.1955 c -0.9197,0.22004 -1.66904,0.43196 -2.21761,0.32245 -0.48064,0.96228 -1.21781,4.82561 -1.14075,7.9112 -0.0253,0.55668 -0.0902,0.91767 -0.20077,1.1377 0.55466,0.55669 1.02211,0.79396 1.33341,0.69763 0,0 0.008,-0.006 0.0101,-0.007 0.0132,-0.0264 0.0274,-0.0527 0.0416,-0.0801 0.18354,-0.57696 0.60942,-4.69987 2.69318,-7.11724 2.97101,0.31536 6.05051,1.47841 9.31761,1.35369 0.40864,0.11255 0.82539,0.29406 1.17421,0.45325 0.15717,0.16731 0.32853,0.29001 0.4999,0.32854 0.46745,0.31333 0.74022,-0.15413 0.53742,-0.98865 -3.48815,-2.15677 -8.26914,-4.21721 -12.04831,-4.01137 z m -39.50023,179.118605 c -19.61171,5.49657 -32.21578,10.30231 -45.14028,10.1863 -0.56,0.004 -1.1233,0.001 -1.6917,-0.0101 -27.4491,-0.51572 -45.1394,-12.94032 -55.9131,-19.84421 -1.5611,-0.5288 -3.5748,-1.09603 -4.643,-0.95062 -1.0342,0.20594 -0.9618,1.24174 0.2598,1.96857 10.3871,13.08887 28.0683,27.01073 58.7884,29.4289101 0.8493,-0.20006 1.6671,-0.40722 2.4669,-0.62107 17.61067,-0.1961101 30.44198,-7.0690801 48.57528,-18.0896001 2.09897,-0.88207 2.90408,-2.05253 2.1588,-2.56551 -0.59015,-0.45863 -2.65059,0.0575 -4.8611,0.49716"
           inkscape:connector-curvature="0" />
      </g>
      <path
         id="path14-2-0"
         transform="matrix(0.26458333,0,0,0.26458333,6.5515635,34.931512)"
         d="m -4984.2441,-2996.4277 c -26.8274,0.012 -52.0936,0.2013 -53.3809,0.6621 -1.375,2.6627 -0.7969,5.3613 -0.7969,7.959 -0.041,34.0085 -0.037,68.0187 -0.041,102.0273 0,2.5833 0.3175,5.2311 -0.709,8.082 -2.5689,0.1085 -4.9266,0.2752 -7.2929,0.2813 -11.0926,0.03 5.4909,-0.01 -5.6016,0.037 -1.8599,0.01 -3.7126,0.2826 -5.9414,0.4707 l -13.7481,1.5195 c -0.76,3.4155 -0.4707,6.2519 -0.4707,9.0449 -0.038,141.3384 -0.037,282.6753 -0.037,424.0137 0,2.4168 0.048,4.8269 -0.039,7.2363 -0.042,1.3821 -0.3171,2.7513 -0.5352,4.459 -5.6296,0.5645 -10.9035,0.2316 -16.1562,0.2891 -5.5499,0.063 -11.1019,0.019 -16.6446,0.019 -5.311,0 -10.6141,-0.06 -15.9179,0.018 -5.4777,0.073 -10.9916,-0.3476 -16.8457,0.3398 -0.1474,2.3156 -0.3406,4.1839 -0.3633,6.0508 -0.045,7.9594 -0.037,15.9177 -0.037,23.877 0,27.4964 7e-4,54.9938 -0.037,82.4902 0,1.9094 0.2372,94.8989 -0.1446,143.2656 h -37.7968 v -327.1836 h -12.711 v -106.371 l -39.416,-116.9766 h -40.6875 -30.5137 -40.6875 l -39.4179,116.9766 v 106.371 h -12.709 v 327.1836 h -29.666 v -139.0058 l -17.8047,-11.8692 v -160.1992 l -81.3672,-32.2109 -81.377,32.2109 v 160.1992 l -17.7968,11.8692 v 139.0058 h -9.75 v -34.3281 h -15.6817 v -292.8555 h -122.9043 v 292.8555 h -15.2539 v 27.9766 h -13.5644 v -247.086 h -22.8848 v -64.4179 h -22.043 v -47.4707 l -17.7969,-9.3203 h -6.7812 -25.4277 -6.7832 l -17.7969,9.3203 v 47.4707 h -22.043 v 64.4179 h -22.8828 v 247.086 h -20.3418 v -29.2422 l -43.2305,-40.6875 h -11.0214 v 16.9492 h -62.7247 l -51.7031,-83.9121 h -11.8672 v -34.7519 l -13.5625,-24.5801 h -5.9336 -5.9316 l -13.5625,24.5801 v 34.7519 h -11.8672 l -51.7051,83.9121 h -62.7246 v -16.9492 h -11.0195 l -43.2285,40.6875 v 29.2422 h -29.668 v 29.7324 h -20.0762 c -2.5296,0 -5.0563,0.01 -7.5859,-0.016 -0.4891,0 -0.9788,-0.1335 -1.5801,-0.2227 v -9.1523 h -0.094 c 0,-5.36 7e-4,-10.7209 -0.037,-16.0801 0,-0.9313 0.1888,-1.9009 -0.295,-2.9238 -1.9173,-0.22 -3.8273,-0.082 -5.7265,-0.1055 -1.8312,-0.026 -3.663,0.038 -5.4942,-0.019 -1.8965,-0.06 -3.8176,0.2644 -5.8242,-0.2617 -0.1587,-2.106 -0.2874,-4.1865 -0.4707,-6.2637 -0.508,-5.7293 -1.0722,-11.4537 -1.5351,-17.1856 -0.1097,-1.3708 -0.075,-2.7985 0.1777,-4.1484 0.6149,-3.2911 1.8371,-6.3485 3.9453,-9.0117 1.9752,-2.4931 2.8425,-5.3435 2.6875,-8.5352 -0.102,-2.1739 -0.1211,-4.3578 -0.1211,-6.5371 -0.038,-7.2387 -0.1854,-14.471 -0.8906,-21.6836 -0.091,-0.9288 -0.3183,-1.9081 0.207,-2.7949 2.1581,-0.6043 2.3762,-0.6674 3.1348,-1.6641 1.2661,-1.6639 2.5941,-3.2999 3.6875,-5.0761 1.7242,-2.802 2.5915,-5.6781 0.4043,-8.7676 -1.321,-1.8706 -1.8853,-4.1057 -2.3086,-6.3477 -0.649,-3.4323 -1.0648,-6.8877 -1.1445,-10.3828 -0.091,-4.1936 -0.5156,-8.3484 -1.377,-12.4609 -0.5518,-2.6423 -1.0138,-5.3056 -1.5059,-7.961 -0.3326,-1.813 -0.5127,-3.6604 -0.1,-5.4629 0.8788,-3.8274 1.5341,-7.6866 1.9551,-11.5898 0.1323,-1.2584 0.6373,-2.329 1.4824,-3.2734 0.5779,-0.6488 1.2097,-1.3026 1.5918,-2.0664 1.4623,-2.9249 3.7132,-5.2567 5.7012,-7.7891 0.7143,-0.9105 1.5889,-1.561 2.6563,-2.0449 2.773,-1.261 5.5143,-2.5948 8.248,-3.9395 0.8553,-0.4212 1.6656,-0.9541 2.4687,-1.4746 0.7454,-0.4814 1.3674,-1.0896 1.5821,-2 0.3779,-1.5958 1.405,-2.7876 2.4648,-3.9492 1.5878,-1.7396 3.2055,-3.4471 4.791,-5.1895 0.5258,-0.5781 1.0314,-1.1877 1.4551,-1.8418 0.6021,-0.9208 0.4845,-1.6317 -0.3515,-2.2832 -0.5466,-0.4263 -1.1931,-0.7285 -1.7422,-1.1523 -0.8973,-0.6854 -1.8344,-1.3458 -2.6036,-2.1621 -1.0881,-1.1537 -1.1453,-1.9306 -0.3437,-3.3066 0.7899,-1.3499 1.7001,-2.63 2.5293,-3.959 0.5495,-0.8817 1.1767,-1.7451 1.543,-2.7051 0.6591,-1.7267 0.3327,-2.7812 -1.0801,-3.9297 -0.7404,-0.6017 -1.5464,-1.1424 -2.3809,-1.6055 -1.5987,-0.8896 -3.2196,-1.7417 -4.8652,-2.5371 -2.5092,-1.2164 -5.0488,-2.3696 -7.5762,-3.5469 -1.5069,-0.7011 -2.902,-1.5611 -4.2441,-2.5605 -1.1747,-0.8738 -2.4739,-1.6531 -3.8262,-2.2129 -2.603,-1.0752 -3.771,-0.6669 -5.3066,1.6563 -0.7193,1.0882 -1.3493,2.2395 -1.9668,3.3906 -0.7847,1.4571 -1.5017,2.9503 -2.2735,4.418 -0.325,0.6147 -0.6689,1.2278 -1.082,1.7851 -0.6595,0.8894 -1.4097,0.9604 -2.2129,0.1836 -1.7707,-1.7136 -3.2667,-3.5995 -3.9629,-6.043 -0.9101,-3.1863 -1.8063,-6.3716 -2.1465,-9.6836 -0.1889,-1.8338 -0.7035,-3.5867 -1.4043,-5.2871 -0.5654,-1.3708 -1.1984,-2.7169 -1.664,-4.1191 -0.96,-2.8803 -2.7648,-4.9485 -5.4434,-6.3926 -3.2228,-1.7345 -6.3605,-3.6249 -9.5156,-5.4824 -1.1248,-0.6592 -2.2259,-1.374 -3.2774,-2.1484 -0.4682,-0.3455 -0.9377,-0.8388 -1.1445,-1.3672 -0.599,-1.541 -1.1302,-3.1138 -1.5644,-4.7071 -0.8266,-3.0163 -0.385,-5.8726 1.2968,-8.5254 0.8871,-1.3996 1.7781,-2.7975 2.6387,-4.2128 0.4056,-0.6671 0.8137,-1.3497 1.0938,-2.0743 0.4161,-1.07 0.2602,-2.0539 -0.7286,-2.7968 -0.4868,-0.3663 -0.9988,-0.7161 -1.4199,-1.1504 -1.1248,-1.1537 -2.0455,-2.4676 -1.7969,-4.168 0.189,-1.2845 0.5758,-2.5484 0.9708,-3.791 0.3874,-1.227 0.4705,-2.5715 1.3046,-3.7383 1.2979,0 2.6007,-0.023 3.9004,0 4.9709,0.092 9.9378,0.2039 14.9082,0.2852 0.3326,0.01 0.8303,0.2359 1.0918,-0.4942 -6.3284,-1.7841 -12.6834,-3.2197 -19.0039,-5.0195 -0.102,-1.9307 0.092,-3.766 -0.7988,-5.5527 0.9679,-0.3557 1.7663,-0.6727 2.5801,-0.9473 4.2119,-1.4153 8.438,-2.7962 12.6367,-4.2481 0.6882,-0.2381 1.5424,-0.2233 2.0156,-0.9414 -0.8307,-0.015 -1.6667,-0.087 -2.4922,-0.023 -3.2152,0.246 -6.4273,0.5424 -9.6425,0.8144 -3.1261,0.2669 -6.2525,0.5209 -9.379,0.8008 -1.0779,0.097 -1.8744,-0.2016 -2.2539,-1.4336 0.4608,-0.7456 0.9471,-1.5673 1.4649,-2.3652 2.9877,-4.6096 5.9879,-9.2082 8.9726,-13.8203 0.2004,-0.3114 0.6063,-0.6509 0.037,-1.1035 -0.638,0.5808 -1.2892,1.1535 -1.92,1.75 -3.7406,3.5318 -7.4725,7.0731 -11.2187,10.5996 -0.4842,0.4553 -1.0474,0.8306 -1.6231,1.2832 -1.745,-1.5645 -3.6155,-2.6208 -5.6875,-3.2774 -0.3363,-2.4643 -0.6647,-4.792 -0.9629,-7.123 -0.3061,-2.4199 -0.5055,-4.8569 -0.8925,-7.2637 -0.3553,-2.2289 -0.2912,-4.5364 -1.2032,-7.1133 -1.0594,7.4899 -1.5779,14.6063 -2.5507,21.4395 -1.8445,0.7691 -3.4299,1.4264 -5.125,2.1328 -5.9672,-3.9504 -11.9922,-7.9421 -18.0274,-11.916 -0.091,-0.06 -0.3014,0.055 -0.6582,0.1367 1.1172,1.4205 2.3335,2.629 3.4844,3.8926 1.2321,1.3551 2.4826,2.6943 3.7226,4.0391 1.1827,1.2819 2.3717,2.5592 3.5411,3.8515 1.2166,1.3421 2.52,2.6161 3.6894,4.1309 -1.036,1.3445 -1.9909,2.5424 -3.0586,3.5234 -9.2738,-1.3159 -15.2981,-2.4757 -17.4199,-3.3808 -0.061,-1.1327 -0.1217,-2.3435 -0.1973,-3.5547 -0.2797,-4.6122 -0.5781,-9.2216 -1.5332,-13.7578 -0.3791,-1.8 -0.8796,-3.562 -1.8789,-5.129 -0.9471,-1.4912 -1.5006,-3.1218 -1.9375,-4.8222 -0.7215,-2.8045 -1.0014,-5.6686 -1.2187,-8.5332 -0.4056,-5.3055 -0.687,-10.619 0.9843,-15.8067 0.2948,-0.9103 0.4684,-1.8616 0.6543,-2.8007 0.8451,-4.2774 1.743,-8.5424 1.3477,-12.9532 -0.1323,-1.5147 0.349,-2.9358 0.959,-4.2988 0.5677,-1.2715 1.2236,-2.5078 1.7754,-3.7871 1.2506,-2.9116 2.13,-5.9529 1.9179,-9.1289 -0.1814,-2.6841 -0.7475,-5.3426 -1.1738,-8.0059 -0.068,-0.4211 -0.2758,-0.8263 -0.4629,-1.2187 -0.2834,-0.5912 -0.7496,-0.9473 -1.4375,-0.9473 -0.6962,-0.01 -1.4014,0.053 -2.084,-0.049 -1.2582,-0.186 -1.8039,-1.0186 -1.5136,-2.2403 0.1852,-0.7613 0.5031,-1.49 0.6679,-2.2539 0.4237,-1.983 0.638,-3.979 -0.3515,-5.873 -1.7688,-3.38 -7.0767,-5.7405 -10.7969,-4.8223 -1.4941,0.3689 -2.4667,1.2795 -2.7441,2.8125 -0.1361,0.7692 -0.1583,1.5597 -0.2188,2.3418 -0.091,1.1302 -0.129,2.2658 -0.25,3.3907 -0.2646,2.3832 -1.3788,4.2924 -3.3437,5.6738 -0.782,0.5493 -1.5858,1.0898 -2.4415,1.5137 -3.911,1.9437 -5.8522,5.3011 -6.8515,9.3691 -0.4237,1.7293 -0.1422,3.2861 1.0351,4.6465 0.4577,0.5284 0.9037,1.0615 1.3848,1.5664 1.5462,1.6194 2.5569,3.4898 2.9492,5.7187 0.1814,1.0177 0.4786,2.061 0.9571,2.9688 0.6017,1.1379 0.6152,2.1143 -0.1055,3.166 -0.8398,1.2243 -0.9045,2.5409 -0.5957,3.998 0.3364,1.609 0.4868,3.2726 0.5605,4.918 0.072,1.5985 0.5465,2.9004 1.9668,3.7402 0.8478,0.4997 1.5287,1.1561 1.9629,2.043 0.7639,1.5644 1.5574,3.1198 2.2559,4.7129 0.5321,1.2139 0.6774,2.4893 0.4004,3.834 -0.2835,1.3604 -0.3976,2.7574 -0.5938,4.1387 -0.6043,4.2328 -1.0053,8.4771 -0.9297,12.7675 0.068,4.1831 0.068,8.371 0,12.5567 -0.095,5.6953 0.546,11.3098 1.6368,16.8848 0.7169,3.6781 1.383,7.366 2.1132,11.039 0.3742,1.8836 0.1195,3.6396 -0.8261,5.3008 -0.344,0.6069 -0.6542,1.239 -1.0704,1.791 -2.773,3.6757 -4.4662,7.8728 -5.8476,12.2051 -1.7424,5.452 -1.4546,10.8121 0.9258,16.0391 0.3953,0.8711 0.8423,1.7277 1.1718,2.625 0.8663,2.3492 2.2415,4.3366 4.1778,5.9062 2.056,1.6665 3.2289,3.776 3.8222,6.3555 0.4869,2.1111 1.1648,4.2222 2.0938,6.1738 0.9366,1.9752 1.2437,3.9637 1.1621,6.0801 -0.094,2.4408 -0.1864,4.8775 -0.2695,7.3183 -0.079,2.3126 0.345,4.5012 1.5234,6.5313 0.4343,0.7508 0.7701,1.5634 1.0996,2.3691 1.18,2.9091 1.532,5.9158 0.75,8.9688 -0.4947,1.9334 -1.2045,3.811 -1.8066,5.7207 -0.5205,1.656 -1.1454,3.2918 -1.5195,4.9844 -0.782,3.529 -0.6328,7.1016 -0.2227,10.6699 0.5076,4.4317 1.4865,8.7752 2.9824,12.9687 1.1112,3.1133 1.1035,6.1298 0.053,9.209 -0.5337,1.5671 -1.0066,3.1551 -1.5743,4.709 -1.3292,3.6522 -1.4811,7.3106 -0.2422,11.0176 0.3591,1.0726 0.6672,2.1635 0.9805,3.2519 0.2684,0.9208 0.4969,1.8507 0.7637,2.7715 0.5809,2.0144 0.3517,3.9737 -0.4024,5.8887 -0.2834,0.7299 -0.5965,1.4538 -0.9472,2.1523 -0.9835,1.9621 -1.6689,4.0103 -2.0352,6.1817 -0.6697,3.9685 -1.6746,7.8275 -3.6445,11.3984 -0.7725,1.3971 -0.9308,2.9771 -0.5801,4.5781 0.3175,1.4467 0.5891,2.9036 0.916,4.3477 0.2948,1.2976 0.3484,2.5838 -0.037,3.8789 -0.641,2.2079 -0.3263,4.3078 0.7188,6.3301 0.6776,1.3185 1.3351,2.6449 1.9863,3.9765 0.8232,1.6874 1.2175,3.4747 0.8437,5.3321 -0.3926,1.9594 -0.8307,3.915 -1.3984,5.83 -0.6225,2.0851 -1.3889,4.1287 -2.1426,6.1719 -1.028,2.7888 -0.9516,5.4277 0.6992,8.002 1.1955,1.8626 1.7666,3.9489 1.9102,6.1777 0.1587,2.4514 0.7723,4.7801 1.8789,7.0195 0.8032,1.6272 1.2622,3.4237 1.8457,5.1582 0.531,1.5801 0.1013,2.9039 -1.1406,4 -1.1879,1.0439 -2.2088,2.2286 -2.9258,3.6543 -1.0647,2.1139 -1.9405,4.3246 -2.2519,6.6582 -0.2571,1.9281 -0.748,3.7354 -1.4805,5.5196 -0.6463,1.5696 -0.7666,3.2137 -0.3399,4.875 0.1928,0.7586 0.4677,1.5055 0.5645,2.2773 0.072,0.5807 0.1212,1.3158 -0.166,1.7656 -1.1513,1.8287 -2.4352,3.5761 -3.6465,5.3184 h -6.9785 c -2.3543,0 -4.7086,-0.042 -7.0606,0.012 -2.242,0.052 -4.5021,-0.2476 -6.9062,0.2442 -0.038,1.0098 -0.084,1.9539 -0.084,2.8984 v 22.2363 c 0,0.9365 -0.068,1.8765 -0.1055,2.8496 -1.1769,0.3925 -2.2242,0.2618 -3.25,0.2618 -18.4014,0.01 -36.8001,0.01 -55.1992,0.01 -0.785,0 -1.5731,-0.03 -2.3555,0.016 -0.4943,0.03 -0.9829,0.176 -1.6289,0.2988 v 7.9238 8.1094 c 0,2.6161 0.038,6.8201 0,9.4336 l 157.0762,-0.072 v 0.072 h -157.0762 v 1467.83204 h 2501.3731 v -1467.83204 -46.6211 h -43.2246 v -31.7851 h -50.8614 v -96.6309 h -157.6562 v 96.6289 h -21.6191 v 20.3477 h -22.8829 v -171.6465 h -124.5996 v 171.6465 h -30.5136 v -44.502 h -25.4278 v -289.8867 h -132.2304 v 113.1543 h -39.4161 v 96.6289 h -38.1445 v 99.1719 h -17.7969 v 34.3281 h -43.6367 c -0.038,-227.3261 -0.039,-463.7393 -0.039,-690.2461 0,-2.6556 0.039,-5.3107 -0.07,-7.959 -0.038,-0.832 -0.4941,-1.6432 -1.0293,-3.2929 l -10.3574,-1.2872 c -2.829,-0.1232 -5.1877,-0.3126 -7.5469,-0.3183 -11.3382,-0.038 4.4656,0.01 -6.873,-0.043 -1.8452,-0.01 -3.9147,0.5564 -5.7383,-1.8242 v -22.5899 -23.8789 -23.1543 c 0,-7.9594 0.088,-15.9266 -0.037,-23.8789 -0.1096,-7.6555 0.5272,-15.3329 -0.4785,-23.1621 -1.5594,-0.2895 -30.3707,-0.4971 -59.1367,-0.5097 -1.7673,-10e-4 -3.5341,-10e-4 -5.2949,0 z m -1483.0196,524.1289 c 0,0.017 -0.027,0.028 -0.033,0.041 0.036,0 0.069,6e-4 0.1016,0.01 l -0.057,-0.041 z m -0.033,0.041 c 0,0 0,0 0,0 v 0 c 0,0 0,0 0,0 z m -69.0117,1.75 c 0.4604,0.03 0.8003,-0.03 1.0645,0.084 4.5388,1.9673 9.0674,3.9544 13.5957,5.9453 0.1474,0.065 0.2692,0.2004 0.5039,0.3808 0.3023,1.0988 -0.2989,2.0839 -0.6133,3.2872 -4.5494,0.8397 -9.0498,1.6706 -13.6699,2.5234 -0.7219,-4.1204 -0.7626,-8.0847 -0.8809,-12.2207 z m 6.3809,14.4961 c 1.0439,0.038 2.0876,0.062 3.1289,0.1328 1.3814,0.094 2.7626,0.2263 4.3398,0.3594 0.824,2.6344 1.1425,5.1279 1.4199,7.6211 0.1248,1.1275 0,2.2516 -0.4511,3.3242 -0.7431,1.7344 -1.9948,2.2312 -3.5176,1.1875 -2.1264,-1.4573 -3.7673,-3.339 -4.4004,-5.9317 -0.1663,-0.6749 -0.2709,-1.3641 -0.4063,-2.0468 -0.2759,-1.4292 -0.5532,-2.8603 -0.871,-4.5098 0.057,-0.051 0.157,-0.069 0.2402,-0.082 0.1701,-0.026 0.3456,-0.063 0.5176,-0.055 z m 1117.414,394.2578 0.3262,0.5664 265.9102,48.4922 3.0468,0.9629 0.037,0.01 c 18.2374,5.6936 36.5002,11.3726 54.7383,17.1133 l 0.1504,0.047 0.1524,0.053 c 10.535,3.707 24.2401,6.4663 37.6582,11.5625 13.3341,5.0642 26.8779,12.9086 35.2968,27.2364 15.2123,23.1694 15.363,50.3744 20.4453,71.7246 l 0.049,0.2148 0.041,0.2168 c 14.7197,77.8564 29.386,158.3027 44.5215,243.5469 15.6355,53.134 30.5863,111.2872 45.5,170.1426 l 0.1699,0.664 0.072,0.6817 c 2.3554,22.7322 3.1134,39.4183 2.4648,51.5527 v 0.074 0.074 c 0,-0.059 -0.015,0.4652 -0.068,1.2325 v 0.1113 0.1094 c -7.5397,80.3173 -23.8812,133.0574 -33.0957,162.9121 v 0.061 c -9.0035,29.8796 -23.3214,74.1194 -29.4824,100.002 l -0.08,0.3379 -0.1054,0.332 c -0.1021,0.3211 -0.2756,1.0199 -0.4571,1.7441 -0.2418,2.2537 -0.5101,4.5989 -0.9277,7.1192 v 0.016 0.012 c -0.3946,2.3419 -0.8548,4.788 -1.3692,7.293 -0.045,0.4604 -0.094,0.9797 -0.1621,1.6133 -0.6399,7.0509 -0.8598,17.8835 -6.3594,29.789 l -0.1289,0.2754 -0.1465,0.2676 c -4.4628,8.2277 -10.7178,13.9304 -16.7949,18.5 l -0.096,0.072 -0.098,0.07 c -5.9834,4.263 -12.3449,7.9939 -18.5645,11.4492 -11.1005,7.2478 -20.6267,13.9298 -27.8066,18.377 l -0.5782,0.3574 -0.623,0.2734 c -37.6309,16.3873 -77.8177,18.8493 -113.1445,18.6641 -23.3575,-0.051 -44.0343,-1.9975 -60.7364,-3.7969 -16.7021,-1.7994 -29.8155,-3.3249 -36,-3.0059 l -0.1406,0.01 h -0.1426 c -7.9884,0.1722 -14.9556,2.4533 -14.4238,2.0703 l -0.5762,0.416 -0.6347,0.3262 c -5.4705,2.8064 -12.7638,4.9234 -22.459,7.6055 -9.6953,2.6822 -21.3916,5.617 -33.711,8.7187 -24.5971,6.1929 -51.8021,13.131 -69.1191,19.4981 -31.6524,15.03282 -99.9453,34.91066 -158.1504,39.74997 l -1.2344,0.24805 -1.373,-0.125 c -50.0315,-4.56344 -108.2706,-12.9235 -164.9922,-44.84762 -55.4578,-26.5956 -100.1284,-84.2285 -126.0254,-127.0332 -21.4696,-35.4892 -39.4447,-88.1612 -36.6543,-131.1641 0.8863,-13.6761 5.1969,-25.2886 8.3887,-35.9395 3.1918,-10.6509 5.3486,-20.1476 3.8516,-30.623 -4.1878,-29.2971 0.6976,-75.7849 19.0468,-120.9941 l 0.1172,-0.2872 0.1367,-0.2792 c 23.2056,-47.9123 54.9269,-87.4392 106.4414,-118.0411 51.8816,-37.2051 105.8328,-60.5358 190.9141,-51.2519 54.8289,0.5646 94.9437,12.9665 125.2109,30.0332 30.3999,17.0529 50.6848,38.7701 65.8887,58 l 0.2949,0.3691 0.252,0.3985 c 6.7109,10.4895 12.8404,16.7782 16.7851,19.7402 5.7018,-12.5203 12.3478,-27.4357 19.3653,-41.8145 l 0.166,-0.3418 0.1933,-0.3261 c 22.729,-38.3956 50.0725,-69.8018 65.502,-92.4727 0.1021,-0.2163 0.3022,-0.6161 0.4609,-1.1172 0.3515,-1.1039 0.8197,-2.782 1.336,-4.8281 1.0333,-4.0923 2.2799,-9.6884 3.6035,-16.0586 l 0.037,-0.1191 0.039,-0.1211 c 2.7719,-11.7951 3.3809,-29.0538 2.3222,-50.9981 l -0.039,-0.5781 0.043,-0.5762 c 0.5205,-7.0164 0.6074,-8.9027 0.8379,-12.4687 -20.6158,-1.1909 -35.6822,-8.5782 -46.3945,-10.9063 l -0.039,-0.012 -0.037,-0.01 c -9.0304,-2.0398 -14.6834,-5.8467 -17.8691,-8.0918 -0.6558,0.111 -1.2641,0.286 -1.9395,0.3808 l -0.1855,0.025 -0.1856,0.019 c -20.7673,2.0938 -35.9633,-4.0182 -46.6601,-10.9277 -5.3363,5.6064 -12.1127,10.9091 -20.9258,14.2676 -8.5039,3.436 -17.4351,4.7172 -28.5137,6.209 l -1.2011,0.3125 -1.5665,-0.1192 c -18.8137,-1.416 -31.4142,-15.2027 -45.1542,-21.8261 l -0.1172,-0.057 -0.5313,-0.2754 -0.1133,-0.062 c -4.5962,-2.5389 -8.3948,-5.7888 -10.8047,-10.3808 v 0 0 c -2.1075,-4.0237 -2.8388,-8.2916 -2.6347,-11.836 0.1451,-6.3498 0.7554,-12.5475 1.0918,-19.2207 v -0.1973 l 0.037,-0.1953 c 0.6965,-7.5803 1.7414,-14.3387 2.1367,-18.8066 v -0.2031 l 0.037,-0.2032 c 0.1058,-0.8138 0.01,-0.4091 0.047,-0.9511 -5.218,-1.4231 -10.3597,-4.3367 -14.9707,-8.8496 l -0.4258,-0.418 -0.3711,-0.4668 c -1.1792,-1.4887 -1.0209,-1.3978 -1.8652,-2.6895 -0.8448,-1.2915 -1.9388,-3.0371 -3.1289,-5.1152 -2.3804,-4.1562 -5.1595,-9.5767 -6.9786,-15.6191 l -0.037,-0.1016 -0.039,-0.1016 c -0.9634,-3.4779 -2.1583,-8.0251 -2.2188,-13.7597 v -0.1055 -0.1074 c 0.031,-2.6804 0.3399,-7.0724 2.2656,-11.8418 l 0.076,-0.1875 0.082,-0.1856 c 12.0433,-26.4983 15.0212,-49.0795 20.6992,-71.332 4.9459,-21.5935 8.1937,-39.0708 15.7793,-52.7383 1.5368,-4.6116 3.0627,-8.3629 3.709,-10.8359 0.4906,-4.2377 1.0824,-8.246 2.0488,-12.1621 l 0.2578,-1.0449 0.4864,-0.961 c 3.8963,-7.6927 9.5663,-12.5931 14.3418,-15.4609 l 0.3926,-0.2363 0.414,-0.1973 c 3.8691,-1.8407 7.6373,-3.1565 10.5313,-4.0645 1.4471,-0.4538 2.6724,-0.801 3.5625,-1.0429 0.4448,-0.121 0.8073,-0.2159 1.0605,-0.2813 0.2115,-0.054 0.8431,-0.2444 0.1738,-0.041 1.754,-0.4961 3.4946,-0.7116 5.1836,-0.7539 z"
         style="fill:#000000;fill-opacity:1;fill-rule:nonzero;stroke:none;stroke-width:0.13333334"
         inkscape:connector-curvature="0" />
    </g>
  </g>
</svg>
