<?xml version="1.0" encoding="UTF-8" standalone="no"?>
<!-- Created with Inkscape (http://www.inkscape.org/) -->

<svg
   xmlns:dc="http://purl.org/dc/elements/1.1/"
   xmlns:cc="http://creativecommons.org/ns#"
   xmlns:rdf="http://www.w3.org/1999/02/22-rdf-syntax-ns#"
   xmlns:svg="http://www.w3.org/2000/svg"
   xmlns="http://www.w3.org/2000/svg"
   xmlns:sodipodi="http://sodipodi.sourceforge.net/DTD/sodipodi-0.dtd"
   xmlns:inkscape="http://www.inkscape.org/namespaces/inkscape"
   width="7048.1069mm"
   height="24399.029mm"
   viewBox="0 0 7048.1069 24399.029"
   version="1.1"
   id="svg8"
   inkscape:version="0.92.5 (2060ec1f9f, 2020-04-08)"
   sodipodi:docname="jcskyline.svg">
  <defs
     id="defs2" />
  <sodipodi:namedview
     id="base"
     pagecolor="#ffffff"
     bordercolor="#666666"
     borderopacity="1.0"
     inkscape:pageopacity="0.0"
     inkscape:pageshadow="2"
     inkscape:zoom="0.01"
     inkscape:cx="52592.968"
     inkscape:cy="33488.861"
     inkscape:document-units="mm"
     inkscape:current-layer="layer1"
     showgrid="false"
     inkscape:window-width="2560"
     inkscape:window-height="1377"
     inkscape:window-x="1912"
     inkscape:window-y="-8"
     inkscape:window-maximized="1" />
  <metadata
     id="metadata5">
    <rdf:RDF>
      <cc:Work
         rdf:about="">
        <dc:format>image/svg+xml</dc:format>
        <dc:type
           rdf:resource="http://purl.org/dc/dcmitype/StillImage" />
        <dc:title />
      </cc:Work>
    </rdf:RDF>
  </metadata>
  <g
     inkscape:label="Layer 1"
     inkscape:groupmode="layer"
     id="layer1"
     transform="translate(4689.8795,5118.6427)">
    <g
       id="g1108">
      <g
         id="g1101">
        <g
           id="g1095">
          <g
             id="g1089">
            <path
               sodipodi:nodetypes="ccccc"
               inkscape:connector-curvature="0"
               id="rect1085"
               d="M -4689.8794,-5118.6427 H 2358.2275 V 2462.7142 H -4689.8794 Z"
               style="opacity:1;vector-effect:none;fill:#ffffff;fill-opacity:1;stroke:none;stroke-width:0.03527778;stroke-linecap:butt;stroke-linejoin:miter;stroke-miterlimit:4;stroke-dasharray:none;stroke-dashoffset:0;stroke-opacity:1" />
            <path
               style="fill:#000000;fill-opacity:1;fill-rule:nonzero;stroke:none;stroke-width:0.13333334"
               d="m -82.316406,-1164.877 c -286.076994,0.1139 -555.743864,2.1419 -569.470704,7.0547 -14.64196,28.357 -8.47851,57.1078 -8.47851,84.7715 -0.452,362.17657 -0.20781,724.35472 -0.45118,1086.531269 0,27.510706 3.39051,55.710493 -7.55273,86.072265 -27.35562,1.155726 -52.46873,2.936156 -77.66797,2.998046 -118.13151,0.30595 58.4765,-0.0694 -59.6543,0.39649 -19.80378,0.0834 -39.52425,2.99925 -63.25976,5.00195 l -146.41994,16.17969 c -8.0928,36.37265 -5.0137,66.57925 -5.0137,96.32421 -0.2294,1505.19138 -0.2304,3010.38198 -0.2304,4515.57418 0,25.7375 0.5153,51.4014 -0.3887,77.0606 -0.452,14.7182 -3.3936,29.2875 -5.7051,47.4746 -59.9523,6.011 -116.1204,2.4709 -172.0625,3.082 -59.104,0.6747 -118.2187,0.2149 -177.2441,0.2149 -56.561,0 -113.041,-0.6263 -169.5235,0.2226 -58.3362,0.7729 -117.0579,-3.7026 -179.4003,3.6172 -1.5479,24.6595 -3.6223,44.5401 -3.8497,64.4219 -0.4728,84.7635 -0.2285,169.5315 -0.2285,254.2949 0,292.825 0.2089,585.6481 -0.25,878.4727 0,20.3342 2.5213,1010.6455 -1.5488,1525.7304 h -402.5508 V 4106.2637 h -135.3613 V 2973.4512 l -419.7656,-1245.75 h -433.3008 -324.957 -433.3106 l -419.7656,1245.75 v 1132.8125 h -135.3496 v 3484.3554 h -315.9336 V 6110.2715 l -189.6094,-126.4004 V 4277.8125 l -866.5351,-343.0254 -866.6133,343.0254 v 1706.0586 l -189.5332,126.4004 v 1480.3476 h -103.8301 v -365.5839 h -167.0274 V 4106.2637 h -1308.8691 v 3118.7715 h -162.4434 v 297.9414 h -144.4668 V 4891.6113 h -243.6953 V 4205.584 h -234.7558 v -505.541 l -189.5293,-99.2461 h -72.2207 -270.7949 -72.2286 l -189.5329,99.2461 v 505.541 h -234.746 v 686.0273 h -243.703 v 2631.3653 h -216.614 v -311.4121 l -460.39,-433.3106 h -117.379 v 180.5078 h -667.981 l -550.627,-893.6289 h -126.369 v -370.1035 l -144.435,-261.7617 h -63.186 -63.185 l -144.426,261.7617 v 370.1035 h -126.379 l -550.637,893.6289 h -667.992 v -180.5078 h -117.348 l -460.369,433.3106 v 311.4121 h -315.945 v 316.6269 h -213.807 c -26.941,0 -53.854,0.083 -80.793,-0.166 -5.211,0 -10.414,-1.4212 -16.82,-2.3691 v -97.4746 h -0.99 c 0,-57.0811 0,-114.1675 -0.209,-171.2403 0,-9.9182 2.002,-20.2508 -3.147,-31.1445 -20.421,-2.3407 -40.759,-0.8694 -60.986,-1.1211 -19.5,-0.291 -39.001,0.4113 -58.504,-0.207 -20.198,-0.6395 -40.652,2.8157 -62.022,-2.7852 -1.672,-22.4273 -3.071,-44.5815 -5.011,-66.7031 -5.408,-61.0141 -11.42,-121.9736 -16.352,-183.0156 -1.176,-14.5989 -0.805,-29.8039 1.899,-44.1797 6.547,-35.0487 19.559,-67.6186 42.013,-95.9805 21.036,-26.5508 30.268,-56.8951 28.616,-90.8848 -1.073,-23.1518 -1.28,-46.407 -1.28,-69.6152 -0.291,-77.0888 -1.961,-154.1269 -9.482,-230.9375 -0.949,-9.8914 -3.372,-20.3132 2.228,-29.7578 22.985,-6.4354 25.304,-7.1031 33.385,-17.7168 13.484,-17.7196 27.607,-35.1382 39.252,-54.0547 18.361,-29.839 27.61,-60.477 4.318,-93.3789 -14.068,-19.9208 -20.084,-43.7142 -24.595,-67.5899 -6.91,-36.5529 -11.334,-73.3628 -12.18,-110.5839 -0.97,-44.6597 -5.486,-88.8966 -14.656,-132.6934 -5.879,-28.1386 -10.813,-56.5048 -16.051,-84.7832 -3.56,-19.3077 -5.447,-38.9764 -1.053,-58.1719 9.36,-40.7603 16.322,-81.878 20.809,-123.4453 1.424,-13.4014 6.796,-24.7993 15.795,-34.8574 6.157,-6.9094 12.869,-13.8673 16.937,-22.002 15.573,-31.1489 39.558,-55.9804 60.733,-82.9492 7.606,-9.696 16.919,-16.6271 28.285,-21.7812 29.533,-13.4287 58.729,-27.6384 87.844,-41.959 9.11,-4.4859 17.716,-10.1441 26.269,-15.6875 7.94,-5.1266 14.569,-11.6169 16.854,-21.3125 4.01,-16.9943 14.965,-29.6745 26.25,-42.0449 16.91,-18.5261 34.152,-36.7147 51.035,-55.2696 5.6,-6.1568 10.974,-12.6495 15.486,-19.6152 6.409,-9.8064 5.159,-17.381 -3.756,-24.3184 -5.822,-4.5407 -12.707,-7.7521 -18.558,-12.2656 -9.554,-7.2994 -19.527,-14.3442 -27.719,-23.0371 -11.59,-12.2861 -12.202,-20.5546 -3.647,-35.209 8.413,-14.3758 18.109,-28.0089 26.94,-42.1621 5.852,-9.3891 12.535,-18.5729 16.435,-28.7969 7.02,-18.3881 3.537,-29.6225 -11.507,-41.8535 -7.885,-6.4078 -16.466,-12.1759 -25.352,-17.1074 -17.024,-9.4734 -34.291,-18.5473 -51.816,-27.0176 -26.719,-12.9543 -53.774,-25.2403 -80.688,-37.7773 -16.047,-7.4672 -30.898,-16.6092 -45.189,-27.252 -12.51,-9.3055 -26.354,-17.6104 -40.756,-23.5722 -27.721,-11.4509 -40.155,-7.0979 -56.508,17.6425 -7.661,11.5892 -14.372,23.8447 -20.947,36.1036 -8.357,15.5179 -15.993,31.4271 -24.211,47.0566 -3.455,6.5473 -7.129,13.0634 -11.529,18.998 -7.022,9.4723 -14.998,10.225 -23.551,1.9512 -18.861,-18.2483 -34.791,-38.3357 -42.203,-64.3574 -9.695,-33.9334 -19.248,-67.8361 -22.87,-103.1074 -2.002,-19.5296 -7.499,-38.1959 -14.964,-56.3047 -6.019,-14.5992 -12.757,-28.9456 -17.715,-43.8789 -10.225,-30.6739 -29.431,-52.6914 -57.957,-68.0703 -34.324,-18.4717 -67.748,-38.6129 -101.348,-58.3946 -11.979,-7.0204 -23.709,-14.6218 -34.91,-22.8691 -4.986,-3.6771 -9.982,-8.9407 -12.182,-14.5684 -6.381,-16.4103 -12.035,-33.1634 -16.658,-50.1308 -8.805,-32.123 -4.093,-62.5367 13.822,-90.7871 9.445,-14.9054 18.917,-29.789 28.082,-44.8614 4.319,-7.104 8.666,-14.3708 11.647,-22.0879 4.431,-11.3952 2.778,-21.877 -7.752,-29.789 -5.185,-3.9012 -10.641,-7.6301 -15.125,-12.2559 -11.979,-12.2861 -21.783,-26.2716 -19.135,-44.3808 2.002,-13.6789 6.129,-27.1359 10.336,-40.3692 4.125,-13.0662 5.013,-27.3904 13.899,-39.8164 13.819,0 27.697,-0.2494 41.542,0 52.935,0.9766 105.837,2.1739 158.772,3.0391 3.537,0.068 8.829,2.5058 11.615,-5.2676 -67.394,-19.0008 -135.064,-34.2915 -202.375,-53.459 -1.094,-20.561 0.971,-40.093 -8.521,-59.1211 10.307,-3.789 18.831,-7.1648 27.496,-10.0898 44.854,-15.0724 89.844,-29.7825 134.56,-45.2442 7.33,-2.5338 16.422,-2.3775 21.461,-10.0254 -8.846,-0.1663 -17.734,-0.9126 -26.525,-0.2421 -34.239,2.6188 -68.45,5.7741 -102.691,8.6718 -33.292,2.8415 -66.595,5.5402 -99.887,8.5215 -11.479,1.0296 -19.97,-2.1517 -24.01,-15.2734 4.905,-7.9408 10.09,-16.6849 15.605,-25.1817 31.817,-49.09 63.766,-98.0718 95.555,-147.1894 2.149,-3.3154 6.462,-6.9335 0.332,-11.7539 -6.797,6.1852 -13.731,12.2923 -20.447,18.6445 -39.839,37.612 -79.594,75.3315 -119.49,112.8867 -5.155,4.8484 -11.148,8.8327 -17.278,13.6524 -18.582,-16.6606 -38.504,-27.8946 -60.57,-34.8867 -3.564,-26.2443 -7.076,-51.0332 -10.252,-75.8575 -3.257,-25.7711 -5.378,-51.7382 -9.502,-77.3691 -3.79,-23.737 -3.116,-48.3064 -12.81,-75.7481 -11.285,79.7636 -16.804,155.5415 -27.166,228.3125 -19.641,8.191 -36.523,15.2058 -54.577,22.7286 -63.547,-42.07 -127.712,-84.5819 -191.986,-126.9024 -0.97,-0.6395 -3.199,0.5842 -7.017,1.4512 11.896,15.1279 24.848,28.0027 37.105,41.459 13.123,14.4321 26.439,28.695 39.645,43.0156 12.593,13.6517 25.272,27.247 37.724,41.0098 12.956,14.2922 26.831,27.8549 39.285,43.9863 -11.032,14.3191 -21.205,27.0851 -32.574,37.5332 -98.763,-14.0141 -162.927,-26.358 -185.521,-35.9981 -0.661,-12.0627 -1.302,-24.9641 -2.092,-37.8632 -2.981,-49.1173 -6.151,-98.2088 -16.321,-146.5176 -4.037,-19.169 -9.365,-37.9216 -20.007,-54.6094 -10.087,-15.8804 -15.985,-33.2583 -20.639,-51.3672 -7.686,-29.8662 -10.667,-60.3756 -12.979,-90.8828 -4.322,-56.5013 -7.329,-113.0812 10.473,-168.3281 3.121,-9.6949 4.984,-19.8107 6.965,-29.8125 8.999,-45.5516 18.574,-90.9905 14.365,-137.9629 -1.424,-16.1315 3.708,-31.2619 10.199,-45.7773 6.045,-13.5405 13.042,-26.6945 18.92,-40.3184 13.318,-31.0078 22.684,-63.4058 20.426,-97.2285 -1.92,-28.5844 -7.969,-56.8894 -12.51,-85.252 -0.722,-4.4852 -2.927,-8.8012 -4.929,-12.9804 -3.036,-6.296 -7.967,-10.0899 -15.293,-10.0899 -7.412,-0.07 -14.936,0.5633 -22.207,-0.5215 -13.4,-1.979 -19.2,-10.839 -16.108,-23.8496 1.961,-8.1074 5.349,-15.8842 7.104,-24.0195 4.514,-21.118 6.796,-42.3747 -3.764,-62.5449 -18.834,-35.9958 -75.361,-61.1242 -114.978,-51.3457 -15.91,3.9282 -26.272,13.623 -29.225,29.9492 -1.465,8.1909 -1.673,16.6075 -2.314,24.9375 -0.951,12.0356 -1.362,24.1242 -2.666,36.1035 -2.814,25.3808 -14.691,45.713 -35.616,60.4238 -8.33,5.8503 -16.879,11.623 -25.99,16.1367 -41.651,20.6995 -62.324,56.4453 -72.967,99.7676 -4.513,18.4165 -1.547,34.9929 11.008,49.4805 4.876,5.6277 9.635,11.314 14.762,16.6914 16.465,17.2455 27.222,37.1655 31.402,60.9023 1.919,10.8376 5.098,21.9454 10.195,31.6133 6.409,12.1184 6.55,22.5144 -1.115,33.7149 -8.943,13.0384 -9.64,27.0482 -6.353,42.5664 3.593,17.1342 5.207,34.8572 5.992,52.3808 0.743,17.023 5.799,30.8941 20.926,39.8379 9.027,5.3212 16.29,12.3124 20.916,21.7578 8.136,16.6598 16.58,33.217 24.019,50.1836 5.665,12.9271 7.209,26.5177 4.256,40.8379 -3.01,14.4873 -4.224,29.362 -6.312,44.0723 -6.438,45.0784 -10.705,90.2675 -9.901,135.959 0.744,44.5481 0.723,89.1504 0,133.7265 -1.011,60.6528 5.801,120.4461 17.418,179.8164 7.635,39.1714 14.731,78.4545 22.506,117.5704 3.982,20.0598 1.301,38.7521 -8.779,56.4433 -3.65,6.4638 -6.983,13.2041 -11.412,19.082 -29.531,39.1446 -47.558,83.8383 -62.268,129.9747 -18.555,58.0611 -15.496,115.1476 9.855,170.8125 4.209,9.2776 8.978,18.3895 12.489,27.9453 9.224,25.0185 23.873,46.1905 44.49,62.9062 21.897,17.7475 34.378,40.2054 40.699,67.6758 5.183,22.4829 12.402,44.9605 22.293,65.7441 9.975,21.0346 13.239,42.2128 12.371,64.752 -0.99,25.9933 -1.96,51.9532 -2.845,77.9473 -0.867,24.6281 3.643,47.9217 16.211,69.541 4.625,7.9956 8.2,16.6658 11.71,25.2461 12.566,30.9804 16.319,62.9893 7.989,95.5019 -5.266,20.5898 -12.812,40.596 -19.221,60.9336 -5.543,17.6364 -12.204,35.0493 -16.189,53.0742 -8.329,37.5833 -6.743,75.6323 -2.37,113.6328 5.406,47.1958 15.829,93.442 31.762,138.1016 11.833,33.1544 11.752,65.2819 0.578,98.0742 -5.685,16.6885 -10.722,33.6018 -16.767,50.1504 -14.154,38.8936 -15.769,77.8682 -2.592,117.3457 3.818,11.4233 7.1,23.0422 10.439,34.6328 2.843,9.8056 5.297,19.6933 8.139,29.5 6.186,21.4526 3.764,42.3233 -4.287,62.7168 -3.036,7.773 -6.358,15.4928 -10.09,22.9317 -10.476,20.8951 -17.771,42.7038 -21.672,65.8281 -7.131,42.2638 -17.834,83.3598 -38.812,121.3887 -8.229,14.8785 -9.91,31.7033 -6.176,48.7539 3.399,15.4068 6.266,30.9222 9.748,46.3008 3.131,13.8194 3.71,27.5069 -0.272,41.2988 -6.825,23.5136 -3.448,45.8822 7.668,67.418 7.216,14.042 14.212,28.1629 21.149,42.3437 8.764,17.9694 12.957,37.0046 8.973,56.7852 -4.182,20.8671 -8.834,41.7013 -14.879,62.0957 -6.63,22.2047 -14.802,43.9651 -22.827,65.7246 -10.949,29.6991 -10.133,57.8032 7.446,85.2187 12.732,19.8357 18.812,42.0509 20.34,65.7871 1.671,26.1064 8.244,50.8973 20.029,74.7461 8.553,17.3284 13.424,36.4697 19.637,54.9414 5.655,16.8276 1.072,30.9262 -12.139,42.5996 -12.65,11.1164 -23.518,23.7345 -31.152,38.918 -11.342,22.5116 -20.676,46.0563 -23.991,70.9082 -2.728,20.533 -7.962,39.7792 -15.763,58.7793 -6.882,16.7161 -8.166,34.2186 -3.625,51.9102 2.064,8.0791 4.982,16.0466 6.013,24.2656 0.785,6.1844 1.28,14.0118 -1.754,18.8027 -12.258,19.4744 -25.935,38.0819 -38.835,56.6367 h -74.311 c -25.073,0 -50.145,-0.4523 -75.191,0.1055 -23.876,0.5564 -47.953,-2.6459 -73.553,2.5918 -0.306,10.7543 -0.887,20.8091 -0.887,30.8672 v 236.8144 c 0,9.9731 -0.722,19.9803 -1.135,30.3438 -12.537,4.1798 -23.688,2.7832 -34.611,2.7832 -195.97,0.083 -391.908,0.084 -587.85,0.084 -8.359,0 -16.744,-0.3329 -25.074,0.166 -5.267,0.3061 -10.474,1.8896 -17.355,3.1992 v 84.3672 86.3613 c 0,27.8604 0.284,72.6402 -0.207,100.4727 l 1672.779,-0.7676 v 0.7676 h -1672.779 V 72870.755 H 8912.9863 V 8114.2129 7617.707 H 8452.668 V 7279.2031 H 7911.0137 V 6250.1348 H 6232.0371 v 1029.0644 h -230.2344 v 216.6875 H 5758.1074 V 5667.9277 H 4431.1738 v 1827.959 h -324.957 V 7021.9492 H 3835.4316 V 3934.7852 H 2427.2402 v 1205.0507 h -419.7656 v 1029.0528 h -406.2207 v 1056.1445 h -189.5312 v 365.582 H 947 c -0.20863,-2420.9231 -0.20898,-4938.6187 -0.20898,-7350.81637 0,-28.28119 0.39122,-56.55841 -0.76172,-84.76172 -0.38941,-8.86125 -5.24263,-17.49884 -10.94336,-35.06836 l -110.31836,-13.7168 c -30.12745,-1.3101 -55.24444,-3.33069 -80.36719,-3.39257 -120.74823,-0.38247 47.56281,0.0834 -73.1875,-0.45899 -19.64942,-0.0834 -41.68554,5.93106 -61.10547,-19.421874 v -240.580076 -254.28321 -246.5957 c 0,-84.76429 0.90839,-169.60712 -0.25,-254.29492 -1.1557,-81.52868 5.62434,-163.28051 -5.08594,-246.65821 -16.60641,-3.0819 -323.44404,-5.3065 -629.789058,-5.4414 h 0.06445 c -19.146694,-0.01 -38.291482,-0.011 -57.363281,0 z M -15876.803,4416.8652 c -0.208,0.189 -0.249,0.307 -0.355,0.4805 l 0.05,-0.027 c 0.366,0 0.765,3e-4 1.136,0.068 l -0.619,-0.4375 z m -735.295,19.0879 c 4.902,0.3251 8.523,-0.3334 11.338,0.8946 48.337,20.9514 96.562,42.1007 144.789,63.3027 1.59,0.6954 2.874,2.1414 5.354,4.0625 3.232,11.7014 -3.183,22.1816 -6.528,34.9961 -48.449,8.9431 -96.386,17.8065 -145.587,26.8887 -7.688,-43.88 -8.107,-86.098 -9.366,-130.1446 z m 67.952,154.377 c 11.116,0.3893 22.234,0.6474 33.322,1.3984 14.712,1.0027 29.416,2.4179 46.213,3.8379 8.775,28.0558 12.171,54.6058 15.125,81.1563 1.341,12.0079 0,23.9896 -4.821,35.4121 -7.911,18.4713 -21.224,23.7652 -37.439,12.6504 -22.648,-15.5192 -40.124,-35.5754 -46.865,-63.1856 -1.755,-7.1875 -2.916,-14.5196 -4.34,-21.791 -2.945,-15.2198 -5.897,-30.4515 -9.279,-48.0176 0.619,-0.5423 1.671,-0.7325 2.558,-0.875 1.817,-0.2797 3.676,-0.6675 5.492,-0.584 z"
               transform="scale(0.26458333)"
               id="path14-2"
               inkscape:connector-curvature="0"
               sodipodi:nodetypes="ccccccccccscccscccsccccccccccccccccccccccccccccccccccccccccccccccccccccccccccccccccccccccscccccccccccccccccccccccccccccccccccccccccccccccccccccccccccccccccccccccccccccccccccccccccccccccccccccccccccccccccccccccccccccccccccccccccccccccccccccccccccccccccccccccccccccccccccccccccccccsccssccscccscccccccccccccccccccccccccccccccccsccccccccsccccccccccccccccccccccccccccccc"
               inkscape:export-xdpi="50"
               inkscape:export-ydpi="50" />
          </g>
        </g>
      </g>
    </g>
  </g>
</svg>
